<mxfile host="app.diagrams.net" modified="2024-02-02T03:41:22.293Z" agent="Mozilla/5.0 (Windows NT 10.0; Win64; x64) AppleWebKit/537.36 (KHTML, like Gecko) Chrome/121.0.0.0 Safari/537.36" etag="8aB-5_Ja-rR7b13UxuUf" version="23.1.1" type="github">
  <diagram name="Page-1" id="HZjEvbOUQnJ17dc9Jhi6">
    <mxGraphModel dx="1434" dy="764" grid="1" gridSize="10" guides="1" tooltips="1" connect="1" arrows="1" fold="1" page="1" pageScale="1" pageWidth="850" pageHeight="1100" math="0" shadow="0">
      <root>
        <mxCell id="0" />
        <mxCell id="1" parent="0" />
        <mxCell id="RD_BjFuZVKAJSrdPhWW8-18" value="" style="group" vertex="1" connectable="0" parent="1">
          <mxGeometry x="50" y="60" width="290" height="395.71000000000004" as="geometry" />
        </mxCell>
        <mxCell id="RD_BjFuZVKAJSrdPhWW8-17" style="edgeStyle=orthogonalEdgeStyle;rounded=0;orthogonalLoop=1;jettySize=auto;html=1;exitX=1;exitY=1;exitDx=0;exitDy=0;" edge="1" parent="RD_BjFuZVKAJSrdPhWW8-18" source="RD_BjFuZVKAJSrdPhWW8-3">
          <mxGeometry relative="1" as="geometry">
            <mxPoint x="190" y="256" as="targetPoint" />
          </mxGeometry>
        </mxCell>
        <mxCell id="RD_BjFuZVKAJSrdPhWW8-24" style="edgeStyle=orthogonalEdgeStyle;rounded=0;orthogonalLoop=1;jettySize=auto;html=1;exitX=1;exitY=0.5;exitDx=0;exitDy=0;" edge="1" parent="RD_BjFuZVKAJSrdPhWW8-18" source="RD_BjFuZVKAJSrdPhWW8-3">
          <mxGeometry relative="1" as="geometry">
            <mxPoint x="350" y="123" as="targetPoint" />
          </mxGeometry>
        </mxCell>
        <mxCell id="RD_BjFuZVKAJSrdPhWW8-3" value="" style="whiteSpace=wrap;html=1;aspect=fixed;fillColor=#647687;fontColor=#ffffff;strokeColor=#314354;rotation=0;" vertex="1" parent="RD_BjFuZVKAJSrdPhWW8-18">
          <mxGeometry x="-10" y="-20" width="200" height="285.71" as="geometry">
            <mxPoint x="100" y="130" as="offset" />
          </mxGeometry>
        </mxCell>
        <mxCell id="RD_BjFuZVKAJSrdPhWW8-7" value="" style="rounded=0;whiteSpace=wrap;html=1;" vertex="1" parent="RD_BjFuZVKAJSrdPhWW8-18">
          <mxGeometry x="100" width="80" height="100" as="geometry" />
        </mxCell>
        <mxCell id="RD_BjFuZVKAJSrdPhWW8-8" value="" style="rounded=0;whiteSpace=wrap;html=1;" vertex="1" parent="RD_BjFuZVKAJSrdPhWW8-18">
          <mxGeometry width="80" height="100" as="geometry" />
        </mxCell>
        <mxCell id="RD_BjFuZVKAJSrdPhWW8-9" value="" style="rounded=0;whiteSpace=wrap;html=1;" vertex="1" parent="RD_BjFuZVKAJSrdPhWW8-18">
          <mxGeometry x="100" y="110" width="80" height="100" as="geometry" />
        </mxCell>
        <mxCell id="RD_BjFuZVKAJSrdPhWW8-10" value="" style="rounded=0;whiteSpace=wrap;html=1;" vertex="1" parent="RD_BjFuZVKAJSrdPhWW8-18">
          <mxGeometry y="110" width="80" height="100" as="geometry" />
        </mxCell>
        <mxCell id="RD_BjFuZVKAJSrdPhWW8-11" value="&lt;h1&gt;&lt;span style=&quot;background-color: initial;&quot;&gt;Plant&lt;/span&gt;&lt;/h1&gt;&lt;h1&gt;&lt;span style=&quot;background-color: initial; font-size: 12px; font-weight: normal;&quot;&gt;info.&lt;/span&gt;&lt;br&gt;&lt;/h1&gt;" style="text;html=1;strokeColor=none;fillColor=none;spacing=5;spacingTop=-20;whiteSpace=wrap;overflow=hidden;rounded=0;" vertex="1" parent="RD_BjFuZVKAJSrdPhWW8-18">
          <mxGeometry width="80" height="100" as="geometry" />
        </mxCell>
        <mxCell id="RD_BjFuZVKAJSrdPhWW8-12" value="&lt;h1&gt;&lt;span style=&quot;background-color: initial;&quot;&gt;Plant&lt;/span&gt;&lt;/h1&gt;&lt;h1&gt;&lt;span style=&quot;background-color: initial; font-size: 12px; font-weight: normal;&quot;&gt;info.&lt;/span&gt;&lt;br&gt;&lt;/h1&gt;" style="text;html=1;strokeColor=none;fillColor=none;spacing=5;spacingTop=-20;whiteSpace=wrap;overflow=hidden;rounded=0;" vertex="1" parent="RD_BjFuZVKAJSrdPhWW8-18">
          <mxGeometry x="100" width="80" height="100" as="geometry" />
        </mxCell>
        <mxCell id="RD_BjFuZVKAJSrdPhWW8-13" value="&lt;h1&gt;&lt;span style=&quot;background-color: initial;&quot;&gt;Plant&lt;/span&gt;&lt;/h1&gt;&lt;h1&gt;&lt;span style=&quot;background-color: initial; font-size: 12px; font-weight: normal;&quot;&gt;info.&lt;/span&gt;&lt;br&gt;&lt;/h1&gt;" style="text;html=1;strokeColor=none;fillColor=none;spacing=5;spacingTop=-20;whiteSpace=wrap;overflow=hidden;rounded=0;" vertex="1" parent="RD_BjFuZVKAJSrdPhWW8-18">
          <mxGeometry y="110" width="80" height="100" as="geometry" />
        </mxCell>
        <mxCell id="RD_BjFuZVKAJSrdPhWW8-14" value="&lt;h1&gt;&lt;span style=&quot;background-color: initial;&quot;&gt;Plant&lt;/span&gt;&lt;/h1&gt;&lt;h1&gt;&lt;span style=&quot;background-color: initial; font-size: 12px; font-weight: normal;&quot;&gt;info.&lt;/span&gt;&lt;br&gt;&lt;/h1&gt;" style="text;html=1;strokeColor=none;fillColor=none;spacing=5;spacingTop=-20;whiteSpace=wrap;overflow=hidden;rounded=0;" vertex="1" parent="RD_BjFuZVKAJSrdPhWW8-18">
          <mxGeometry x="100" y="110" width="80" height="100" as="geometry" />
        </mxCell>
        <mxCell id="RD_BjFuZVKAJSrdPhWW8-38" value="" style="whiteSpace=wrap;html=1;aspect=fixed;rotation=0;fillColor=#647687;fontColor=#ffffff;strokeColor=#314354;" vertex="1" parent="1">
          <mxGeometry x="400" y="70" width="200" height="280" as="geometry" />
        </mxCell>
        <mxCell id="RD_BjFuZVKAJSrdPhWW8-48" value="" style="rounded=0;whiteSpace=wrap;html=1;" vertex="1" parent="1">
          <mxGeometry x="400" y="310" width="200" height="40" as="geometry" />
        </mxCell>
        <mxCell id="RD_BjFuZVKAJSrdPhWW8-49" value="Report Dead" style="text;html=1;strokeColor=none;fillColor=none;align=center;verticalAlign=middle;whiteSpace=wrap;rounded=0;" vertex="1" parent="1">
          <mxGeometry x="400" y="310" width="60" height="40" as="geometry" />
        </mxCell>
        <mxCell id="RD_BjFuZVKAJSrdPhWW8-52" value="" style="group" vertex="1" connectable="0" parent="1">
          <mxGeometry x="425" y="10" width="177.5" height="340" as="geometry" />
        </mxCell>
        <mxCell id="RD_BjFuZVKAJSrdPhWW8-44" style="edgeStyle=orthogonalEdgeStyle;rounded=0;orthogonalLoop=1;jettySize=auto;html=1;exitX=1;exitY=0;exitDx=0;exitDy=0;" edge="1" parent="RD_BjFuZVKAJSrdPhWW8-52" source="RD_BjFuZVKAJSrdPhWW8-40">
          <mxGeometry relative="1" as="geometry">
            <mxPoint x="148" y="30" as="targetPoint" />
          </mxGeometry>
        </mxCell>
        <mxCell id="RD_BjFuZVKAJSrdPhWW8-40" value="&lt;font style=&quot;font-size: 17px;&quot;&gt;Plant Name&lt;/font&gt;" style="text;html=1;strokeColor=none;fillColor=none;align=center;verticalAlign=middle;whiteSpace=wrap;rounded=0;" vertex="1" parent="RD_BjFuZVKAJSrdPhWW8-52">
          <mxGeometry x="2.5" y="70" width="145" height="30" as="geometry" />
        </mxCell>
        <mxCell id="RD_BjFuZVKAJSrdPhWW8-42" value="" style="ellipse;whiteSpace=wrap;html=1;aspect=fixed;" vertex="1" parent="RD_BjFuZVKAJSrdPhWW8-52">
          <mxGeometry x="125" y="70" width="30" height="30" as="geometry" />
        </mxCell>
        <mxCell id="RD_BjFuZVKAJSrdPhWW8-45" value="change name button" style="text;html=1;strokeColor=none;fillColor=none;align=center;verticalAlign=middle;whiteSpace=wrap;rounded=0;" vertex="1" parent="RD_BjFuZVKAJSrdPhWW8-52">
          <mxGeometry x="117.5" width="60" height="30" as="geometry" />
        </mxCell>
        <mxCell id="RD_BjFuZVKAJSrdPhWW8-47" value="&lt;p style=&quot;line-height: 10%;&quot;&gt;&lt;/p&gt;&lt;h1&gt;Plant type&lt;/h1&gt;&lt;p&gt;water schedule:&lt;/p&gt;&lt;p&gt;climate:&lt;/p&gt;&lt;p&gt;facts:&lt;/p&gt;&lt;p&gt;Journal&lt;/p&gt;&lt;p&gt;_____________&lt;/p&gt;&lt;p&gt;&lt;br&gt;&lt;/p&gt;&lt;p&gt;&lt;/p&gt;" style="text;html=1;strokeColor=none;fillColor=none;spacing=5;spacingTop=-20;whiteSpace=wrap;overflow=hidden;rounded=0;" vertex="1" parent="RD_BjFuZVKAJSrdPhWW8-52">
          <mxGeometry y="100" width="145" height="160" as="geometry" />
        </mxCell>
        <mxCell id="RD_BjFuZVKAJSrdPhWW8-50" value="Water" style="text;html=1;strokeColor=none;fillColor=none;align=center;verticalAlign=middle;whiteSpace=wrap;rounded=0;" vertex="1" parent="RD_BjFuZVKAJSrdPhWW8-52">
          <mxGeometry x="42.5" y="300" width="60" height="40" as="geometry" />
        </mxCell>
        <mxCell id="RD_BjFuZVKAJSrdPhWW8-51" value="Plant" style="text;html=1;strokeColor=none;fillColor=none;align=center;verticalAlign=middle;whiteSpace=wrap;rounded=0;" vertex="1" parent="RD_BjFuZVKAJSrdPhWW8-52">
          <mxGeometry x="115" y="300" width="60" height="40" as="geometry" />
        </mxCell>
        <mxCell id="RD_BjFuZVKAJSrdPhWW8-67" style="edgeStyle=orthogonalEdgeStyle;rounded=0;orthogonalLoop=1;jettySize=auto;html=1;exitX=1;exitY=0.5;exitDx=0;exitDy=0;" edge="1" parent="1" source="RD_BjFuZVKAJSrdPhWW8-54">
          <mxGeometry relative="1" as="geometry">
            <mxPoint x="410" y="613" as="targetPoint" />
          </mxGeometry>
        </mxCell>
        <mxCell id="RD_BjFuZVKAJSrdPhWW8-68" value="" style="group" vertex="1" connectable="0" parent="1">
          <mxGeometry x="22.340000000000003" y="460" width="345.31068965517244" height="395.71000000000004" as="geometry" />
        </mxCell>
        <mxCell id="RD_BjFuZVKAJSrdPhWW8-53" style="edgeStyle=orthogonalEdgeStyle;rounded=0;orthogonalLoop=1;jettySize=auto;html=1;exitX=1;exitY=1;exitDx=0;exitDy=0;" edge="1" source="RD_BjFuZVKAJSrdPhWW8-54" parent="RD_BjFuZVKAJSrdPhWW8-68">
          <mxGeometry relative="1" as="geometry">
            <mxPoint x="190" y="256" as="targetPoint" />
          </mxGeometry>
        </mxCell>
        <mxCell id="RD_BjFuZVKAJSrdPhWW8-54" value="" style="whiteSpace=wrap;html=1;aspect=fixed;fillColor=#647687;fontColor=#ffffff;strokeColor=#314354;rotation=0;" vertex="1" parent="RD_BjFuZVKAJSrdPhWW8-68">
          <mxGeometry x="-10" y="-20" width="200" height="285.71" as="geometry">
            <mxPoint x="100" y="130" as="offset" />
          </mxGeometry>
        </mxCell>
        <mxCell id="RD_BjFuZVKAJSrdPhWW8-55" value="" style="rounded=0;whiteSpace=wrap;html=1;" vertex="1" parent="RD_BjFuZVKAJSrdPhWW8-68">
          <mxGeometry y="60" width="180" height="50" as="geometry" />
        </mxCell>
        <mxCell id="RD_BjFuZVKAJSrdPhWW8-56" value="" style="rounded=0;whiteSpace=wrap;html=1;" vertex="1" parent="RD_BjFuZVKAJSrdPhWW8-68">
          <mxGeometry width="180" height="50" as="geometry" />
        </mxCell>
        <mxCell id="RD_BjFuZVKAJSrdPhWW8-57" value="" style="rounded=0;whiteSpace=wrap;html=1;" vertex="1" parent="RD_BjFuZVKAJSrdPhWW8-68">
          <mxGeometry y="180" width="180" height="60" as="geometry" />
        </mxCell>
        <mxCell id="RD_BjFuZVKAJSrdPhWW8-58" value="" style="rounded=0;whiteSpace=wrap;html=1;" vertex="1" parent="RD_BjFuZVKAJSrdPhWW8-68">
          <mxGeometry y="120" width="180" height="50" as="geometry" />
        </mxCell>
        <mxCell id="RD_BjFuZVKAJSrdPhWW8-59" value="&lt;h1&gt;&lt;span style=&quot;background-color: initial;&quot;&gt;Plant&lt;/span&gt;&lt;/h1&gt;&lt;h1&gt;&lt;span style=&quot;background-color: initial; font-size: 12px; font-weight: normal;&quot;&gt;info.&lt;/span&gt;&lt;br&gt;&lt;/h1&gt;" style="text;html=1;strokeColor=none;fillColor=none;spacing=5;spacingTop=-20;whiteSpace=wrap;overflow=hidden;rounded=0;" vertex="1" parent="RD_BjFuZVKAJSrdPhWW8-68">
          <mxGeometry width="190" height="50" as="geometry" />
        </mxCell>
        <mxCell id="RD_BjFuZVKAJSrdPhWW8-60" value="&lt;h1&gt;&lt;span style=&quot;background-color: initial;&quot;&gt;Plant&lt;/span&gt;&lt;/h1&gt;&lt;h1&gt;&lt;span style=&quot;background-color: initial; font-size: 12px; font-weight: normal;&quot;&gt;info.&lt;/span&gt;&lt;br&gt;&lt;/h1&gt;" style="text;html=1;strokeColor=none;fillColor=none;spacing=5;spacingTop=-20;whiteSpace=wrap;overflow=hidden;rounded=0;" vertex="1" parent="RD_BjFuZVKAJSrdPhWW8-68">
          <mxGeometry y="60" width="80" height="50" as="geometry" />
        </mxCell>
        <mxCell id="RD_BjFuZVKAJSrdPhWW8-61" value="&lt;h1&gt;&lt;span style=&quot;background-color: initial;&quot;&gt;Plant&lt;/span&gt;&lt;/h1&gt;&lt;h1&gt;&lt;span style=&quot;background-color: initial; font-size: 12px; font-weight: normal;&quot;&gt;info.&lt;/span&gt;&lt;br&gt;&lt;/h1&gt;" style="text;html=1;strokeColor=none;fillColor=none;spacing=5;spacingTop=-20;whiteSpace=wrap;overflow=hidden;rounded=0;" vertex="1" parent="RD_BjFuZVKAJSrdPhWW8-68">
          <mxGeometry y="180" width="80" height="60" as="geometry" />
        </mxCell>
        <mxCell id="RD_BjFuZVKAJSrdPhWW8-62" value="&lt;h1&gt;&lt;span style=&quot;background-color: initial;&quot;&gt;Plant&lt;/span&gt;&lt;/h1&gt;&lt;h1&gt;&lt;span style=&quot;background-color: initial; font-size: 12px; font-weight: normal;&quot;&gt;info.&lt;/span&gt;&lt;br&gt;&lt;/h1&gt;" style="text;html=1;strokeColor=none;fillColor=none;spacing=5;spacingTop=-20;whiteSpace=wrap;overflow=hidden;rounded=0;" vertex="1" parent="RD_BjFuZVKAJSrdPhWW8-68">
          <mxGeometry y="120" width="180" height="50" as="geometry" />
        </mxCell>
        <mxCell id="RD_BjFuZVKAJSrdPhWW8-63" value="info" style="text;html=1;strokeColor=none;fillColor=none;align=center;verticalAlign=middle;whiteSpace=wrap;rounded=0;" vertex="1" parent="RD_BjFuZVKAJSrdPhWW8-68">
          <mxGeometry x="80" width="90" height="50" as="geometry" />
        </mxCell>
        <mxCell id="RD_BjFuZVKAJSrdPhWW8-64" value="info" style="text;html=1;strokeColor=none;fillColor=none;align=center;verticalAlign=middle;whiteSpace=wrap;rounded=0;" vertex="1" parent="RD_BjFuZVKAJSrdPhWW8-68">
          <mxGeometry x="90" y="60" width="90" height="50" as="geometry" />
        </mxCell>
        <mxCell id="RD_BjFuZVKAJSrdPhWW8-65" value="info" style="text;html=1;strokeColor=none;fillColor=none;align=center;verticalAlign=middle;whiteSpace=wrap;rounded=0;" vertex="1" parent="RD_BjFuZVKAJSrdPhWW8-68">
          <mxGeometry x="90" y="120" width="90" height="50" as="geometry" />
        </mxCell>
        <mxCell id="RD_BjFuZVKAJSrdPhWW8-66" value="info" style="text;html=1;strokeColor=none;fillColor=none;align=center;verticalAlign=middle;whiteSpace=wrap;rounded=0;" vertex="1" parent="RD_BjFuZVKAJSrdPhWW8-68">
          <mxGeometry x="90" y="180" width="90" height="50" as="geometry" />
        </mxCell>
        <mxCell id="RD_BjFuZVKAJSrdPhWW8-86" value="" style="whiteSpace=wrap;html=1;aspect=fixed;fillColor=#647687;fontColor=#ffffff;strokeColor=#314354;rotation=0;" vertex="1" parent="1">
          <mxGeometry x="413.75" y="450" width="200" height="280" as="geometry" />
        </mxCell>
        <mxCell id="RD_BjFuZVKAJSrdPhWW8-87" value="Plant Name" style="text;html=1;strokeColor=none;fillColor=none;align=center;verticalAlign=middle;whiteSpace=wrap;rounded=0;" vertex="1" parent="1">
          <mxGeometry x="422.5" y="450" width="180" height="40" as="geometry" />
        </mxCell>
        <mxCell id="RD_BjFuZVKAJSrdPhWW8-88" value="&lt;h1&gt;info&lt;/h1&gt;&lt;p&gt;Lorem ipsum dolor sit amet, consectetur adipisicing elit, sed do eiusmod tempor incididunt ut labore et dolore magna aliqua.&lt;/p&gt;" style="text;html=1;strokeColor=none;fillColor=none;spacing=5;spacingTop=-20;whiteSpace=wrap;overflow=hidden;rounded=0;" vertex="1" parent="1">
          <mxGeometry x="426.25" y="480" width="176.25" height="170" as="geometry" />
        </mxCell>
        <mxCell id="RD_BjFuZVKAJSrdPhWW8-89" value="" style="rounded=0;whiteSpace=wrap;html=1;" vertex="1" parent="1">
          <mxGeometry x="413.75" y="680" width="206.25" height="50" as="geometry" />
        </mxCell>
        <mxCell id="RD_BjFuZVKAJSrdPhWW8-90" value="ADD TO Garden" style="text;html=1;strokeColor=none;fillColor=none;align=center;verticalAlign=middle;whiteSpace=wrap;rounded=0;" vertex="1" parent="1">
          <mxGeometry x="440" y="690" width="150" height="30" as="geometry" />
        </mxCell>
      </root>
    </mxGraphModel>
  </diagram>
</mxfile>
